<?xml version="1.0" standalone="no"?><!DOCTYPE svg PUBLIC "-//W3C//DTD SVG 1.1//EN" "http://www.w3.org/Graphics/SVG/1.1/DTD/svg11.dtd"><svg t="1786169288665" class="icon" viewBox="0 0 1115 1024" version="1.1" xmlns="http://www.w3.org/2000/svg" p-id="4870" xmlns:xlink="http://www.w3.org/1999/xlink" width="278.75" height="256"><path d="M147.911111 117.009067h750.933333v546.133333h-750.933333z" fill="#FFFFFF" p-id="4871"></path><path d="M850.898489 1018.083556H264.123733a42.507378 42.507378 0 0 1-42.689422-42.689423c0-23.711289 18.978133-42.689422 42.689422-42.689422h586.774756c23.711289 0 42.689422 18.978133 42.689422 42.689422a42.507378 42.507378 0 0 1-42.689422 42.689423zM1040.634311 15.928889H74.387911A63.328711 63.328711 0 0 0 11.377778 78.961778v685.715911c0 34.542933 28.444444 63.010133 63.032889 63.010133h966.200889c34.588444 0 63.032889-28.444444 63.032888-63.032889V78.961778C1103.644444 44.373333 1075.2 15.928889 1040.611556 15.928889zM346.112 593.237333a42.507378 42.507378 0 0 1-42.689422 42.689423 42.507378 42.507378 0 0 1-42.689422-42.689423V255.135289c0-23.734044 18.978133-42.689422 42.689422-42.689422 23.711289 0 42.689422 18.955378 42.689422 42.689422V593.237333z m254.088533 0a42.507378 42.507378 0 0 1-42.689422 42.689423 42.507378 42.507378 0 0 1-42.689422-42.689423V342.539378c0-23.711289 18.978133-42.689422 42.689422-42.689422 23.711289 0 42.689422 18.978133 42.689422 42.689422V593.237333z m253.405867 0a42.507378 42.507378 0 0 1-42.689422 42.689423 42.507378 42.507378 0 0 1-42.666667-42.689423v-163.976533c0-23.711289 18.955378-42.689422 42.666667-42.689422 23.734044 0 42.689422 18.978133 42.689422 42.689422v163.976533z" fill="#0041C4" p-id="4872"></path><path d="M850.898489 1018.083556H264.123733a42.507378 42.507378 0 0 1-42.689422-42.689423c0-23.711289 18.978133-42.689422 42.689422-42.689422h586.774756c23.711289 0 42.689422 18.978133 42.689422 42.689422a42.507378 42.507378 0 0 1-42.689422 42.689423z" fill="#00B3F3" p-id="4873"></path></svg>